<?xml version="1.0" encoding="UTF-8"?>
<svg width="323px" height="306px" viewBox="0 0 323 306" version="1.1" xmlns="http://www.w3.org/2000/svg" xmlns:xlink="http://www.w3.org/1999/xlink">
    <!-- Generator: Sketch 51.2 (57519) - http://www.bohemiancoding.com/sketch -->
    <title>clean</title>
    <desc>Created with Sketch.</desc>
    <defs></defs>
    <g id="Page-1" stroke="none" stroke-width="1" fill="none" fill-rule="evenodd">
        <g id="Artboard" transform="translate(-43.000000, -15.000000)" fill="#FFFFFF" fill-rule="nonzero">
            <g id="clean" transform="translate(43.000000, 15.000000)">
                <path d="M321.6,172.601 C320.8,171.001 318.8,170.201 317.2,169.801 C308,169.801 228.8,166.601 228.8,74.601 C228.8,71.801 226.4,69.401 223.6,69.401 C220.8,69.401 218.4,71.801 218.4,74.601 C218.4,166.601 139.2,169.801 130.4,169.801 C129.2,169.801 128,170.201 127.2,171.001 C126.4,171.401 126,172.201 125.6,172.601 C124.8,174.201 124.8,176.201 125.6,177.801 C126.4,179.401 128.4,180.601 130.4,180.601 C130.4,180.601 130.4,180.601 130.8,180.601 C140,180.601 218.8,183.801 218.8,275.801 C218.8,278.601 221.2,281.001 224,281.001 C226.8,281.001 229.2,278.601 229.2,275.801 C229.2,184.201 308,180.601 317.2,180.601 C319.2,180.601 320.8,179.401 322,177.801 C322.8,176.201 322.8,174.201 321.6,172.601 Z" id="Shape"></path>
                <path d="M157.6,68.601 C160.4,68.601 162.8,66.201 162.8,63.001 C162.8,60.201 160.4,57.801 157.6,57.801 C152.8,57.801 109.6,56.201 109.6,5.801 C109.6,3.001 107.2,0.601 104.4,0.601 C101.6,0.601 99.2,3.001 99.2,5.801 C99.2,56.201 56,57.801 51.2,57.801 C50.8,57.801 50.8,57.801 50.8,57.801 C48,58.201 46,60.201 46,63.001 C46,65.801 48.4,68.201 51.2,68.201 C56.4,68.201 99.2,69.801 99.2,120.201 C99.2,123.001 101.6,125.401 104.4,125.401 C106.8,125.801 109.2,123.401 109.2,120.601 C109.2,70.201 152.4,68.601 157.2,68.601 L157.6,68.601 Z" id="Shape"></path>
                <path d="M111.6,238.201 C106.8,238.201 63.6,236.601 63.6,186.201 C63.6,183.401 61.2,181.001 58.4,181.001 C55.6,181.001 53.2,183.401 53.2,186.201 C53.2,236.601 10,238.201 5.2,238.201 C4.8,238.201 4.8,238.201 4.8,238.201 C2,238.601 -1.42108547e-14,240.601 -1.42108547e-14,243.401 C-1.42108547e-14,246.201 2.4,248.601 5.2,248.601 C10.4,248.601 53.2,250.201 53.2,300.601 C53.2,303.401 55.6,305.801 58.4,305.801 C60.8,306.601 63.2,304.201 63.2,301.001 C63.2,250.601 106.4,249.001 111.2,249.001 L111.6,249.001 C114.4,249.001 116.8,246.601 116.8,243.401 C116.8,240.601 114.4,238.201 111.6,238.201 Z" id="Shape"></path>
            </g>
        </g>
    </g>
</svg>